<svg width="33" height="32" viewBox="0 0 33 32" fill="none" xmlns="http://www.w3.org/2000/svg">
<path d="M16.6666 17.3334C17.403 17.3334 17.9999 16.7365 17.9999 16.0001C17.9999 15.2637 17.403 14.6667 16.6666 14.6667C15.9302 14.6667 15.3333 15.2637 15.3333 16.0001C15.3333 16.7365 15.9302 17.3334 16.6666 17.3334Z" stroke="black" stroke-width="2" stroke-linecap="round" stroke-linejoin="round"/>
<path d="M26 17.3334C26.7363 17.3334 27.3333 16.7365 27.3333 16.0001C27.3333 15.2637 26.7363 14.6667 26 14.6667C25.2636 14.6667 24.6666 15.2637 24.6666 16.0001C24.6666 16.7365 25.2636 17.3334 26 17.3334Z" stroke="black" stroke-width="2" stroke-linecap="round" stroke-linejoin="round"/>
<path d="M7.33333 17.3334C8.06971 17.3334 8.66667 16.7365 8.66667 16.0001C8.66667 15.2637 8.06971 14.6667 7.33333 14.6667C6.59695 14.6667 6 15.2637 6 16.0001C6 16.7365 6.59695 17.3334 7.33333 17.3334Z" stroke="black" stroke-width="2" stroke-linecap="round" stroke-linejoin="round"/>
</svg>
