<svg width="9" height="11" viewBox="0 0 9 11" fill="none" xmlns="http://www.w3.org/2000/svg">
<path fill-rule="evenodd" clip-rule="evenodd" d="M4.42188 2.53125C3.77955 2.53125 3.16354 2.78641 2.70935 3.2406C2.25516 3.69479 2 4.3108 2 4.95312C2 5.48815 1.56628 5.92188 1.03125 5.92188C0.496224 5.92188 0.0625 5.48815 0.0625 4.95312C0.0625 3.79695 0.521789 2.68812 1.33933 1.87058C2.15687 1.05304 3.2657 0.59375 4.42188 0.59375C5.57805 0.59375 6.68688 1.05304 7.50442 1.87058C8.32196 2.68812 8.78125 3.79695 8.78125 4.95312V9.3125C8.78125 9.84753 8.34753 10.2812 7.8125 10.2812C7.27747 10.2812 6.84375 9.84753 6.84375 9.3125V4.95312C6.84375 4.3108 6.58859 3.69479 6.1344 3.2406C5.68021 2.78641 5.0642 2.53125 4.42188 2.53125Z" fill="white"/>
</svg>
