<svg width="26" height="25" viewBox="0 0 26 25" fill="none" xmlns="http://www.w3.org/2000/svg">
<path fill-rule="evenodd" clip-rule="evenodd" d="M7.67188 2.32812C4.99675 2.32812 2.82812 4.49675 2.82812 7.17188V17.8281C2.82812 20.5033 4.99675 22.6719 7.67188 22.6719H18.3281C21.0033 22.6719 23.1719 20.5033 23.1719 17.8281V7.17188C23.1719 4.49675 21.0033 2.32812 18.3281 2.32812H7.67188ZM0.890625 7.17188C0.890625 3.42669 3.92669 0.390625 7.67188 0.390625H18.3281C22.0733 0.390625 25.1094 3.42669 25.1094 7.17188V17.8281C25.1094 21.5733 22.0733 24.6094 18.3281 24.6094H7.67188C3.92669 24.6094 0.890625 21.5733 0.890625 17.8281V7.17188Z" fill="white"/>
</svg>
